<?xml version="1.0" encoding="utf-8" standalone="no"?>
<!DOCTYPE svg PUBLIC "-//W3C//DTD SVG 1.1//EN"
  "http://www.w3.org/Graphics/SVG/1.1/DTD/svg11.dtd">
<!-- Created with matplotlib (https://matplotlib.org/) -->
<svg height="432pt" version="1.1" viewBox="0 0 720 432" width="720pt" xmlns="http://www.w3.org/2000/svg" xmlns:xlink="http://www.w3.org/1999/xlink">
 <defs>
  <style type="text/css">
*{stroke-linecap:butt;stroke-linejoin:round;}
  </style>
 </defs>
 <g id="figure_1">
  <g id="patch_1">
   <path d="M 0 432 
L 720 432 
L 720 0 
L 0 0 
z
" style="fill:#ffffff;"/>
  </g>
  <g id="axes_1">
   <g id="patch_2">
    <path d="M 90 378 
L 648 378 
L 648 51.84 
L 90 51.84 
z
" style="fill:#ffffff;"/>
   </g>
   <g id="matplotlib.axis_1">
    <g id="xtick_1">
     <g id="line2d_1">
      <defs>
       <path d="M 0 0 
L 0 3.5 
" id="md51bbc856c" style="stroke:#000000;stroke-width:0.8;"/>
      </defs>
      <g>
       <use style="stroke:#000000;stroke-width:0.8;" x="136.5" xlink:href="#md51bbc856c" y="378"/>
      </g>
     </g>
     <g id="text_1">
      <!-- 0.0 -->
      <defs>
       <path d="M 31.78125 66.40625 
Q 24.171875 66.40625 20.328125 58.90625 
Q 16.5 51.421875 16.5 36.375 
Q 16.5 21.390625 20.328125 13.890625 
Q 24.171875 6.390625 31.78125 6.390625 
Q 39.453125 6.390625 43.28125 13.890625 
Q 47.125 21.390625 47.125 36.375 
Q 47.125 51.421875 43.28125 58.90625 
Q 39.453125 66.40625 31.78125 66.40625 
z
M 31.78125 74.21875 
Q 44.046875 74.21875 50.515625 64.515625 
Q 56.984375 54.828125 56.984375 36.375 
Q 56.984375 17.96875 50.515625 8.265625 
Q 44.046875 -1.421875 31.78125 -1.421875 
Q 19.53125 -1.421875 13.0625 8.265625 
Q 6.59375 17.96875 6.59375 36.375 
Q 6.59375 54.828125 13.0625 64.515625 
Q 19.53125 74.21875 31.78125 74.21875 
z
" id="DejaVuSans-48"/>
       <path d="M 10.6875 12.40625 
L 21 12.40625 
L 21 0 
L 10.6875 0 
z
" id="DejaVuSans-46"/>
      </defs>
      <g transform="translate(125.367812 395.637812)scale(0.14 -0.14)">
       <use xlink:href="#DejaVuSans-48"/>
       <use x="63.623047" xlink:href="#DejaVuSans-46"/>
       <use x="95.410156" xlink:href="#DejaVuSans-48"/>
      </g>
     </g>
    </g>
    <g id="xtick_2">
     <g id="line2d_2">
      <g>
       <use style="stroke:#000000;stroke-width:0.8;" x="229.5" xlink:href="#md51bbc856c" y="378"/>
      </g>
     </g>
     <g id="text_2">
      <!-- 0.2 -->
      <defs>
       <path d="M 19.1875 8.296875 
L 53.609375 8.296875 
L 53.609375 0 
L 7.328125 0 
L 7.328125 8.296875 
Q 12.9375 14.109375 22.625 23.890625 
Q 32.328125 33.6875 34.8125 36.53125 
Q 39.546875 41.84375 41.421875 45.53125 
Q 43.3125 49.21875 43.3125 52.78125 
Q 43.3125 58.59375 39.234375 62.25 
Q 35.15625 65.921875 28.609375 65.921875 
Q 23.96875 65.921875 18.8125 64.3125 
Q 13.671875 62.703125 7.8125 59.421875 
L 7.8125 69.390625 
Q 13.765625 71.78125 18.9375 73 
Q 24.125 74.21875 28.421875 74.21875 
Q 39.75 74.21875 46.484375 68.546875 
Q 53.21875 62.890625 53.21875 53.421875 
Q 53.21875 48.921875 51.53125 44.890625 
Q 49.859375 40.875 45.40625 35.40625 
Q 44.1875 33.984375 37.640625 27.21875 
Q 31.109375 20.453125 19.1875 8.296875 
z
" id="DejaVuSans-50"/>
      </defs>
      <g transform="translate(218.367813 395.637812)scale(0.14 -0.14)">
       <use xlink:href="#DejaVuSans-48"/>
       <use x="63.623047" xlink:href="#DejaVuSans-46"/>
       <use x="95.410156" xlink:href="#DejaVuSans-50"/>
      </g>
     </g>
    </g>
    <g id="xtick_3">
     <g id="line2d_3">
      <g>
       <use style="stroke:#000000;stroke-width:0.8;" x="322.5" xlink:href="#md51bbc856c" y="378"/>
      </g>
     </g>
     <g id="text_3">
      <!-- 0.4 -->
      <defs>
       <path d="M 37.796875 64.3125 
L 12.890625 25.390625 
L 37.796875 25.390625 
z
M 35.203125 72.90625 
L 47.609375 72.90625 
L 47.609375 25.390625 
L 58.015625 25.390625 
L 58.015625 17.1875 
L 47.609375 17.1875 
L 47.609375 0 
L 37.796875 0 
L 37.796875 17.1875 
L 4.890625 17.1875 
L 4.890625 26.703125 
z
" id="DejaVuSans-52"/>
      </defs>
      <g transform="translate(311.367813 395.637812)scale(0.14 -0.14)">
       <use xlink:href="#DejaVuSans-48"/>
       <use x="63.623047" xlink:href="#DejaVuSans-46"/>
       <use x="95.410156" xlink:href="#DejaVuSans-52"/>
      </g>
     </g>
    </g>
    <g id="xtick_4">
     <g id="line2d_4">
      <g>
       <use style="stroke:#000000;stroke-width:0.8;" x="415.5" xlink:href="#md51bbc856c" y="378"/>
      </g>
     </g>
     <g id="text_4">
      <!-- 0.6 -->
      <defs>
       <path d="M 33.015625 40.375 
Q 26.375 40.375 22.484375 35.828125 
Q 18.609375 31.296875 18.609375 23.390625 
Q 18.609375 15.53125 22.484375 10.953125 
Q 26.375 6.390625 33.015625 6.390625 
Q 39.65625 6.390625 43.53125 10.953125 
Q 47.40625 15.53125 47.40625 23.390625 
Q 47.40625 31.296875 43.53125 35.828125 
Q 39.65625 40.375 33.015625 40.375 
z
M 52.59375 71.296875 
L 52.59375 62.3125 
Q 48.875 64.0625 45.09375 64.984375 
Q 41.3125 65.921875 37.59375 65.921875 
Q 27.828125 65.921875 22.671875 59.328125 
Q 17.53125 52.734375 16.796875 39.40625 
Q 19.671875 43.65625 24.015625 45.921875 
Q 28.375 48.1875 33.59375 48.1875 
Q 44.578125 48.1875 50.953125 41.515625 
Q 57.328125 34.859375 57.328125 23.390625 
Q 57.328125 12.15625 50.6875 5.359375 
Q 44.046875 -1.421875 33.015625 -1.421875 
Q 20.359375 -1.421875 13.671875 8.265625 
Q 6.984375 17.96875 6.984375 36.375 
Q 6.984375 53.65625 15.1875 63.9375 
Q 23.390625 74.21875 37.203125 74.21875 
Q 40.921875 74.21875 44.703125 73.484375 
Q 48.484375 72.75 52.59375 71.296875 
z
" id="DejaVuSans-54"/>
      </defs>
      <g transform="translate(404.367813 395.637812)scale(0.14 -0.14)">
       <use xlink:href="#DejaVuSans-48"/>
       <use x="63.623047" xlink:href="#DejaVuSans-46"/>
       <use x="95.410156" xlink:href="#DejaVuSans-54"/>
      </g>
     </g>
    </g>
    <g id="xtick_5">
     <g id="line2d_5">
      <g>
       <use style="stroke:#000000;stroke-width:0.8;" x="508.5" xlink:href="#md51bbc856c" y="378"/>
      </g>
     </g>
     <g id="text_5">
      <!-- 0.8 -->
      <defs>
       <path d="M 31.78125 34.625 
Q 24.75 34.625 20.71875 30.859375 
Q 16.703125 27.09375 16.703125 20.515625 
Q 16.703125 13.921875 20.71875 10.15625 
Q 24.75 6.390625 31.78125 6.390625 
Q 38.8125 6.390625 42.859375 10.171875 
Q 46.921875 13.96875 46.921875 20.515625 
Q 46.921875 27.09375 42.890625 30.859375 
Q 38.875 34.625 31.78125 34.625 
z
M 21.921875 38.8125 
Q 15.578125 40.375 12.03125 44.71875 
Q 8.5 49.078125 8.5 55.328125 
Q 8.5 64.0625 14.71875 69.140625 
Q 20.953125 74.21875 31.78125 74.21875 
Q 42.671875 74.21875 48.875 69.140625 
Q 55.078125 64.0625 55.078125 55.328125 
Q 55.078125 49.078125 51.53125 44.71875 
Q 48 40.375 41.703125 38.8125 
Q 48.828125 37.15625 52.796875 32.3125 
Q 56.78125 27.484375 56.78125 20.515625 
Q 56.78125 9.90625 50.3125 4.234375 
Q 43.84375 -1.421875 31.78125 -1.421875 
Q 19.734375 -1.421875 13.25 4.234375 
Q 6.78125 9.90625 6.78125 20.515625 
Q 6.78125 27.484375 10.78125 32.3125 
Q 14.796875 37.15625 21.921875 38.8125 
z
M 18.3125 54.390625 
Q 18.3125 48.734375 21.84375 45.5625 
Q 25.390625 42.390625 31.78125 42.390625 
Q 38.140625 42.390625 41.71875 45.5625 
Q 45.3125 48.734375 45.3125 54.390625 
Q 45.3125 60.0625 41.71875 63.234375 
Q 38.140625 66.40625 31.78125 66.40625 
Q 25.390625 66.40625 21.84375 63.234375 
Q 18.3125 60.0625 18.3125 54.390625 
z
" id="DejaVuSans-56"/>
      </defs>
      <g transform="translate(497.367813 395.637812)scale(0.14 -0.14)">
       <use xlink:href="#DejaVuSans-48"/>
       <use x="63.623047" xlink:href="#DejaVuSans-46"/>
       <use x="95.410156" xlink:href="#DejaVuSans-56"/>
      </g>
     </g>
    </g>
    <g id="xtick_6">
     <g id="line2d_6">
      <g>
       <use style="stroke:#000000;stroke-width:0.8;" x="601.5" xlink:href="#md51bbc856c" y="378"/>
      </g>
     </g>
     <g id="text_6">
      <!-- 1.0 -->
      <defs>
       <path d="M 12.40625 8.296875 
L 28.515625 8.296875 
L 28.515625 63.921875 
L 10.984375 60.40625 
L 10.984375 69.390625 
L 28.421875 72.90625 
L 38.28125 72.90625 
L 38.28125 8.296875 
L 54.390625 8.296875 
L 54.390625 0 
L 12.40625 0 
z
" id="DejaVuSans-49"/>
      </defs>
      <g transform="translate(590.367813 395.637812)scale(0.14 -0.14)">
       <use xlink:href="#DejaVuSans-49"/>
       <use x="63.623047" xlink:href="#DejaVuSans-46"/>
       <use x="95.410156" xlink:href="#DejaVuSans-48"/>
      </g>
     </g>
    </g>
    <g id="text_7">
     <!-- Sea Level Contributions (m) -->
     <defs>
      <path d="M 53.515625 70.515625 
L 53.515625 60.890625 
Q 47.90625 63.578125 42.921875 64.890625 
Q 37.9375 66.21875 33.296875 66.21875 
Q 25.25 66.21875 20.875 63.09375 
Q 16.5 59.96875 16.5 54.203125 
Q 16.5 49.359375 19.40625 46.890625 
Q 22.3125 44.4375 30.421875 42.921875 
L 36.375 41.703125 
Q 47.40625 39.59375 52.65625 34.296875 
Q 57.90625 29 57.90625 20.125 
Q 57.90625 9.515625 50.796875 4.046875 
Q 43.703125 -1.421875 29.984375 -1.421875 
Q 24.8125 -1.421875 18.96875 -0.25 
Q 13.140625 0.921875 6.890625 3.21875 
L 6.890625 13.375 
Q 12.890625 10.015625 18.65625 8.296875 
Q 24.421875 6.59375 29.984375 6.59375 
Q 38.421875 6.59375 43.015625 9.90625 
Q 47.609375 13.234375 47.609375 19.390625 
Q 47.609375 24.75 44.3125 27.78125 
Q 41.015625 30.8125 33.5 32.328125 
L 27.484375 33.5 
Q 16.453125 35.6875 11.515625 40.375 
Q 6.59375 45.0625 6.59375 53.421875 
Q 6.59375 63.09375 13.40625 68.65625 
Q 20.21875 74.21875 32.171875 74.21875 
Q 37.3125 74.21875 42.625 73.28125 
Q 47.953125 72.359375 53.515625 70.515625 
z
" id="DejaVuSans-83"/>
      <path d="M 56.203125 29.59375 
L 56.203125 25.203125 
L 14.890625 25.203125 
Q 15.484375 15.921875 20.484375 11.0625 
Q 25.484375 6.203125 34.421875 6.203125 
Q 39.59375 6.203125 44.453125 7.46875 
Q 49.3125 8.734375 54.109375 11.28125 
L 54.109375 2.78125 
Q 49.265625 0.734375 44.1875 -0.34375 
Q 39.109375 -1.421875 33.890625 -1.421875 
Q 20.796875 -1.421875 13.15625 6.1875 
Q 5.515625 13.8125 5.515625 26.8125 
Q 5.515625 40.234375 12.765625 48.109375 
Q 20.015625 56 32.328125 56 
Q 43.359375 56 49.78125 48.890625 
Q 56.203125 41.796875 56.203125 29.59375 
z
M 47.21875 32.234375 
Q 47.125 39.59375 43.09375 43.984375 
Q 39.0625 48.390625 32.421875 48.390625 
Q 24.90625 48.390625 20.390625 44.140625 
Q 15.875 39.890625 15.1875 32.171875 
z
" id="DejaVuSans-101"/>
      <path d="M 34.28125 27.484375 
Q 23.390625 27.484375 19.1875 25 
Q 14.984375 22.515625 14.984375 16.5 
Q 14.984375 11.71875 18.140625 8.90625 
Q 21.296875 6.109375 26.703125 6.109375 
Q 34.1875 6.109375 38.703125 11.40625 
Q 43.21875 16.703125 43.21875 25.484375 
L 43.21875 27.484375 
z
M 52.203125 31.203125 
L 52.203125 0 
L 43.21875 0 
L 43.21875 8.296875 
Q 40.140625 3.328125 35.546875 0.953125 
Q 30.953125 -1.421875 24.3125 -1.421875 
Q 15.921875 -1.421875 10.953125 3.296875 
Q 6 8.015625 6 15.921875 
Q 6 25.140625 12.171875 29.828125 
Q 18.359375 34.515625 30.609375 34.515625 
L 43.21875 34.515625 
L 43.21875 35.40625 
Q 43.21875 41.609375 39.140625 45 
Q 35.0625 48.390625 27.6875 48.390625 
Q 23 48.390625 18.546875 47.265625 
Q 14.109375 46.140625 10.015625 43.890625 
L 10.015625 52.203125 
Q 14.9375 54.109375 19.578125 55.046875 
Q 24.21875 56 28.609375 56 
Q 40.484375 56 46.34375 49.84375 
Q 52.203125 43.703125 52.203125 31.203125 
z
" id="DejaVuSans-97"/>
      <path id="DejaVuSans-32"/>
      <path d="M 9.8125 72.90625 
L 19.671875 72.90625 
L 19.671875 8.296875 
L 55.171875 8.296875 
L 55.171875 0 
L 9.8125 0 
z
" id="DejaVuSans-76"/>
      <path d="M 2.984375 54.6875 
L 12.5 54.6875 
L 29.59375 8.796875 
L 46.6875 54.6875 
L 56.203125 54.6875 
L 35.6875 0 
L 23.484375 0 
z
" id="DejaVuSans-118"/>
      <path d="M 9.421875 75.984375 
L 18.40625 75.984375 
L 18.40625 0 
L 9.421875 0 
z
" id="DejaVuSans-108"/>
      <path d="M 64.40625 67.28125 
L 64.40625 56.890625 
Q 59.421875 61.53125 53.78125 63.8125 
Q 48.140625 66.109375 41.796875 66.109375 
Q 29.296875 66.109375 22.65625 58.46875 
Q 16.015625 50.828125 16.015625 36.375 
Q 16.015625 21.96875 22.65625 14.328125 
Q 29.296875 6.6875 41.796875 6.6875 
Q 48.140625 6.6875 53.78125 8.984375 
Q 59.421875 11.28125 64.40625 15.921875 
L 64.40625 5.609375 
Q 59.234375 2.09375 53.4375 0.328125 
Q 47.65625 -1.421875 41.21875 -1.421875 
Q 24.65625 -1.421875 15.125 8.703125 
Q 5.609375 18.84375 5.609375 36.375 
Q 5.609375 53.953125 15.125 64.078125 
Q 24.65625 74.21875 41.21875 74.21875 
Q 47.75 74.21875 53.53125 72.484375 
Q 59.328125 70.75 64.40625 67.28125 
z
" id="DejaVuSans-67"/>
      <path d="M 30.609375 48.390625 
Q 23.390625 48.390625 19.1875 42.75 
Q 14.984375 37.109375 14.984375 27.296875 
Q 14.984375 17.484375 19.15625 11.84375 
Q 23.34375 6.203125 30.609375 6.203125 
Q 37.796875 6.203125 41.984375 11.859375 
Q 46.1875 17.53125 46.1875 27.296875 
Q 46.1875 37.015625 41.984375 42.703125 
Q 37.796875 48.390625 30.609375 48.390625 
z
M 30.609375 56 
Q 42.328125 56 49.015625 48.375 
Q 55.71875 40.765625 55.71875 27.296875 
Q 55.71875 13.875 49.015625 6.21875 
Q 42.328125 -1.421875 30.609375 -1.421875 
Q 18.84375 -1.421875 12.171875 6.21875 
Q 5.515625 13.875 5.515625 27.296875 
Q 5.515625 40.765625 12.171875 48.375 
Q 18.84375 56 30.609375 56 
z
" id="DejaVuSans-111"/>
      <path d="M 54.890625 33.015625 
L 54.890625 0 
L 45.90625 0 
L 45.90625 32.71875 
Q 45.90625 40.484375 42.875 44.328125 
Q 39.84375 48.1875 33.796875 48.1875 
Q 26.515625 48.1875 22.3125 43.546875 
Q 18.109375 38.921875 18.109375 30.90625 
L 18.109375 0 
L 9.078125 0 
L 9.078125 54.6875 
L 18.109375 54.6875 
L 18.109375 46.1875 
Q 21.34375 51.125 25.703125 53.5625 
Q 30.078125 56 35.796875 56 
Q 45.21875 56 50.046875 50.171875 
Q 54.890625 44.34375 54.890625 33.015625 
z
" id="DejaVuSans-110"/>
      <path d="M 18.3125 70.21875 
L 18.3125 54.6875 
L 36.8125 54.6875 
L 36.8125 47.703125 
L 18.3125 47.703125 
L 18.3125 18.015625 
Q 18.3125 11.328125 20.140625 9.421875 
Q 21.96875 7.515625 27.59375 7.515625 
L 36.8125 7.515625 
L 36.8125 0 
L 27.59375 0 
Q 17.1875 0 13.234375 3.875 
Q 9.28125 7.765625 9.28125 18.015625 
L 9.28125 47.703125 
L 2.6875 47.703125 
L 2.6875 54.6875 
L 9.28125 54.6875 
L 9.28125 70.21875 
z
" id="DejaVuSans-116"/>
      <path d="M 41.109375 46.296875 
Q 39.59375 47.171875 37.8125 47.578125 
Q 36.03125 48 33.890625 48 
Q 26.265625 48 22.1875 43.046875 
Q 18.109375 38.09375 18.109375 28.8125 
L 18.109375 0 
L 9.078125 0 
L 9.078125 54.6875 
L 18.109375 54.6875 
L 18.109375 46.1875 
Q 20.953125 51.171875 25.484375 53.578125 
Q 30.03125 56 36.53125 56 
Q 37.453125 56 38.578125 55.875 
Q 39.703125 55.765625 41.0625 55.515625 
z
" id="DejaVuSans-114"/>
      <path d="M 9.421875 54.6875 
L 18.40625 54.6875 
L 18.40625 0 
L 9.421875 0 
z
M 9.421875 75.984375 
L 18.40625 75.984375 
L 18.40625 64.59375 
L 9.421875 64.59375 
z
" id="DejaVuSans-105"/>
      <path d="M 48.6875 27.296875 
Q 48.6875 37.203125 44.609375 42.84375 
Q 40.53125 48.484375 33.40625 48.484375 
Q 26.265625 48.484375 22.1875 42.84375 
Q 18.109375 37.203125 18.109375 27.296875 
Q 18.109375 17.390625 22.1875 11.75 
Q 26.265625 6.109375 33.40625 6.109375 
Q 40.53125 6.109375 44.609375 11.75 
Q 48.6875 17.390625 48.6875 27.296875 
z
M 18.109375 46.390625 
Q 20.953125 51.265625 25.265625 53.625 
Q 29.59375 56 35.59375 56 
Q 45.5625 56 51.78125 48.09375 
Q 58.015625 40.1875 58.015625 27.296875 
Q 58.015625 14.40625 51.78125 6.484375 
Q 45.5625 -1.421875 35.59375 -1.421875 
Q 29.59375 -1.421875 25.265625 0.953125 
Q 20.953125 3.328125 18.109375 8.203125 
L 18.109375 0 
L 9.078125 0 
L 9.078125 75.984375 
L 18.109375 75.984375 
z
" id="DejaVuSans-98"/>
      <path d="M 8.5 21.578125 
L 8.5 54.6875 
L 17.484375 54.6875 
L 17.484375 21.921875 
Q 17.484375 14.15625 20.5 10.265625 
Q 23.53125 6.390625 29.59375 6.390625 
Q 36.859375 6.390625 41.078125 11.03125 
Q 45.3125 15.671875 45.3125 23.6875 
L 45.3125 54.6875 
L 54.296875 54.6875 
L 54.296875 0 
L 45.3125 0 
L 45.3125 8.40625 
Q 42.046875 3.421875 37.71875 1 
Q 33.40625 -1.421875 27.6875 -1.421875 
Q 18.265625 -1.421875 13.375 4.4375 
Q 8.5 10.296875 8.5 21.578125 
z
M 31.109375 56 
z
" id="DejaVuSans-117"/>
      <path d="M 44.28125 53.078125 
L 44.28125 44.578125 
Q 40.484375 46.53125 36.375 47.5 
Q 32.28125 48.484375 27.875 48.484375 
Q 21.1875 48.484375 17.84375 46.4375 
Q 14.5 44.390625 14.5 40.28125 
Q 14.5 37.15625 16.890625 35.375 
Q 19.28125 33.59375 26.515625 31.984375 
L 29.59375 31.296875 
Q 39.15625 29.25 43.1875 25.515625 
Q 47.21875 21.78125 47.21875 15.09375 
Q 47.21875 7.46875 41.1875 3.015625 
Q 35.15625 -1.421875 24.609375 -1.421875 
Q 20.21875 -1.421875 15.453125 -0.5625 
Q 10.6875 0.296875 5.421875 2 
L 5.421875 11.28125 
Q 10.40625 8.6875 15.234375 7.390625 
Q 20.0625 6.109375 24.8125 6.109375 
Q 31.15625 6.109375 34.5625 8.28125 
Q 37.984375 10.453125 37.984375 14.40625 
Q 37.984375 18.0625 35.515625 20.015625 
Q 33.0625 21.96875 24.703125 23.78125 
L 21.578125 24.515625 
Q 13.234375 26.265625 9.515625 29.90625 
Q 5.8125 33.546875 5.8125 39.890625 
Q 5.8125 47.609375 11.28125 51.796875 
Q 16.75 56 26.8125 56 
Q 31.78125 56 36.171875 55.265625 
Q 40.578125 54.546875 44.28125 53.078125 
z
" id="DejaVuSans-115"/>
      <path d="M 31 75.875 
Q 24.46875 64.65625 21.28125 53.65625 
Q 18.109375 42.671875 18.109375 31.390625 
Q 18.109375 20.125 21.3125 9.0625 
Q 24.515625 -2 31 -13.1875 
L 23.1875 -13.1875 
Q 15.875 -1.703125 12.234375 9.375 
Q 8.59375 20.453125 8.59375 31.390625 
Q 8.59375 42.28125 12.203125 53.3125 
Q 15.828125 64.359375 23.1875 75.875 
z
" id="DejaVuSans-40"/>
      <path d="M 52 44.1875 
Q 55.375 50.25 60.0625 53.125 
Q 64.75 56 71.09375 56 
Q 79.640625 56 84.28125 50.015625 
Q 88.921875 44.046875 88.921875 33.015625 
L 88.921875 0 
L 79.890625 0 
L 79.890625 32.71875 
Q 79.890625 40.578125 77.09375 44.375 
Q 74.3125 48.1875 68.609375 48.1875 
Q 61.625 48.1875 57.5625 43.546875 
Q 53.515625 38.921875 53.515625 30.90625 
L 53.515625 0 
L 44.484375 0 
L 44.484375 32.71875 
Q 44.484375 40.625 41.703125 44.40625 
Q 38.921875 48.1875 33.109375 48.1875 
Q 26.21875 48.1875 22.15625 43.53125 
Q 18.109375 38.875 18.109375 30.90625 
L 18.109375 0 
L 9.078125 0 
L 9.078125 54.6875 
L 18.109375 54.6875 
L 18.109375 46.1875 
Q 21.1875 51.21875 25.484375 53.609375 
Q 29.78125 56 35.6875 56 
Q 41.65625 56 45.828125 52.96875 
Q 50 49.953125 52 44.1875 
z
" id="DejaVuSans-109"/>
      <path d="M 8.015625 75.875 
L 15.828125 75.875 
Q 23.140625 64.359375 26.78125 53.3125 
Q 30.421875 42.28125 30.421875 31.390625 
Q 30.421875 20.453125 26.78125 9.375 
Q 23.140625 -1.703125 15.828125 -13.1875 
L 8.015625 -13.1875 
Q 14.5 -2 17.703125 9.0625 
Q 20.90625 20.125 20.90625 31.390625 
Q 20.90625 42.671875 17.703125 53.65625 
Q 14.5 64.65625 8.015625 75.875 
z
" id="DejaVuSans-41"/>
     </defs>
     <g transform="translate(271.294219 413.187187)scale(0.14 -0.14)">
      <use xlink:href="#DejaVuSans-83"/>
      <use x="63.476562" xlink:href="#DejaVuSans-101"/>
      <use x="125" xlink:href="#DejaVuSans-97"/>
      <use x="186.279297" xlink:href="#DejaVuSans-32"/>
      <use x="218.066406" xlink:href="#DejaVuSans-76"/>
      <use x="273.763672" xlink:href="#DejaVuSans-101"/>
      <use x="335.287109" xlink:href="#DejaVuSans-118"/>
      <use x="394.466797" xlink:href="#DejaVuSans-101"/>
      <use x="455.990234" xlink:href="#DejaVuSans-108"/>
      <use x="483.773438" xlink:href="#DejaVuSans-32"/>
      <use x="515.560547" xlink:href="#DejaVuSans-67"/>
      <use x="585.384766" xlink:href="#DejaVuSans-111"/>
      <use x="646.566406" xlink:href="#DejaVuSans-110"/>
      <use x="709.945312" xlink:href="#DejaVuSans-116"/>
      <use x="749.154297" xlink:href="#DejaVuSans-114"/>
      <use x="790.267578" xlink:href="#DejaVuSans-105"/>
      <use x="818.050781" xlink:href="#DejaVuSans-98"/>
      <use x="881.527344" xlink:href="#DejaVuSans-117"/>
      <use x="944.90625" xlink:href="#DejaVuSans-116"/>
      <use x="984.115234" xlink:href="#DejaVuSans-105"/>
      <use x="1011.898438" xlink:href="#DejaVuSans-111"/>
      <use x="1073.080078" xlink:href="#DejaVuSans-110"/>
      <use x="1136.458984" xlink:href="#DejaVuSans-115"/>
      <use x="1188.558594" xlink:href="#DejaVuSans-32"/>
      <use x="1220.345703" xlink:href="#DejaVuSans-40"/>
      <use x="1259.359375" xlink:href="#DejaVuSans-109"/>
      <use x="1356.771484" xlink:href="#DejaVuSans-41"/>
     </g>
    </g>
   </g>
   <g id="matplotlib.axis_2">
    <g id="text_8">
     <!-- Density -->
     <defs>
      <path d="M 19.671875 64.796875 
L 19.671875 8.109375 
L 31.59375 8.109375 
Q 46.6875 8.109375 53.6875 14.9375 
Q 60.6875 21.78125 60.6875 36.53125 
Q 60.6875 51.171875 53.6875 57.984375 
Q 46.6875 64.796875 31.59375 64.796875 
z
M 9.8125 72.90625 
L 30.078125 72.90625 
Q 51.265625 72.90625 61.171875 64.09375 
Q 71.09375 55.28125 71.09375 36.53125 
Q 71.09375 17.671875 61.125 8.828125 
Q 51.171875 0 30.078125 0 
L 9.8125 0 
z
" id="DejaVuSans-68"/>
      <path d="M 32.171875 -5.078125 
Q 28.375 -14.84375 24.75 -17.8125 
Q 21.140625 -20.796875 15.09375 -20.796875 
L 7.90625 -20.796875 
L 7.90625 -13.28125 
L 13.1875 -13.28125 
Q 16.890625 -13.28125 18.9375 -11.515625 
Q 21 -9.765625 23.484375 -3.21875 
L 25.09375 0.875 
L 2.984375 54.6875 
L 12.5 54.6875 
L 29.59375 11.921875 
L 46.6875 54.6875 
L 56.203125 54.6875 
z
" id="DejaVuSans-121"/>
     </defs>
     <g transform="translate(83.088437 241.532031)rotate(-90)scale(0.14 -0.14)">
      <use xlink:href="#DejaVuSans-68"/>
      <use x="77.001953" xlink:href="#DejaVuSans-101"/>
      <use x="138.525391" xlink:href="#DejaVuSans-110"/>
      <use x="201.904297" xlink:href="#DejaVuSans-115"/>
      <use x="254.003906" xlink:href="#DejaVuSans-105"/>
      <use x="281.787109" xlink:href="#DejaVuSans-116"/>
      <use x="320.996094" xlink:href="#DejaVuSans-121"/>
     </g>
    </g>
   </g>
   <g id="line2d_7">
    <path clip-path="url(#p62f2bbe5e4)" d="M 89.535 363.174545 
L 234.15 363.066686 
L 251.355 362.790171 
L 262.98 362.387192 
L 273.21 361.616338 
L 274.14 361.519313 
L 280.65 361.677929 
L 289.95 361.310949 
L 295.53 361.010763 
L 297.855 360.860979 
L 299.715 360.915568 
L 301.11 360.915259 
L 304.83 360.325053 
L 306.225 360.042962 
L 307.62 359.877049 
L 308.55 359.589963 
L 309.015 359.586438 
L 310.41 359.870676 
L 311.805 359.79924 
L 314.595 359.51794 
L 315.99 359.888022 
L 317.385 359.866869 
L 326.685 359.135565 
L 332.73 358.283512 
L 334.125 358.023417 
L 335.985 357.961725 
L 338.31 357.57603 
L 340.635 356.984427 
L 342.03 356.638189 
L 342.96 356.672188 
L 345.285 357.102509 
L 346.68 357.133343 
L 350.865 356.939781 
L 357.84 356.977132 
L 362.955 357.425256 
L 368.07 357.033809 
L 369.465 356.682433 
L 371.79 355.849245 
L 372.72 355.894087 
L 373.65 356.274742 
L 374.58 356.675268 
L 375.51 356.870694 
L 377.37 356.986566 
L 378.765 356.908542 
L 382.02 356.49659 
L 385.74 356.539723 
L 390.39 357.01827 
L 392.25 356.887984 
L 395.97 356.39452 
L 396.9 356.391041 
L 398.295 355.953213 
L 401.085 356.334707 
L 402.48 356.238146 
L 404.34 355.766432 
L 405.27 355.38638 
L 406.2 354.6089 
L 406.665 354.464104 
L 407.595 354.584997 
L 408.99 354.465091 
L 410.85 354.537504 
L 415.035 354.348685 
L 419.22 354.33377 
L 420.615 354.032046 
L 422.01 353.42415 
L 422.94 353.451245 
L 424.8 353.514451 
L 425.73 353.348661 
L 426.66 352.859063 
L 428.985 351.048041 
L 429.915 350.868299 
L 431.775 350.996252 
L 432.24 350.868 
L 433.17 350.269178 
L 433.635 349.964439 
L 434.1 349.831129 
L 435.03 350.091128 
L 435.96 350.280902 
L 436.89 350.050314 
L 437.82 349.485376 
L 439.215 348.21791 
L 443.865 343.574444 
L 445.725 341.27515 
L 447.12 338.846642 
L 448.515 336.386376 
L 449.445 334.78485 
L 450.375 332.686275 
L 451.77 328.696687 
L 454.56 319.897536 
L 455.025 319.086193 
L 455.49 318.697307 
L 456.42 318.201594 
L 457.815 316.544742 
L 458.28 316.445442 
L 459.21 316.741467 
L 459.675 316.522884 
L 460.14 316.02593 
L 461.07 314.556244 
L 463.395 310.338529 
L 463.86 309.873153 
L 464.325 309.591766 
L 465.255 309.394289 
L 466.185 309.524453 
L 467.115 309.812809 
L 467.58 309.803027 
L 468.045 309.605629 
L 468.975 308.77546 
L 471.3 306.360391 
L 472.23 305.355248 
L 472.695 304.629381 
L 473.16 303.538655 
L 473.625 301.718149 
L 475.02 292.461992 
L 475.485 291.554433 
L 475.95 291.725643 
L 476.415 291.68521 
L 476.88 290.873295 
L 477.345 289.369045 
L 478.275 285.189717 
L 479.205 280.175491 
L 481.065 269.07767 
L 481.53 269.072232 
L 481.995 269.523209 
L 482.925 269.739082 
L 483.39 270.176847 
L 484.32 271.362271 
L 485.25 272.050819 
L 486.18 272.60659 
L 487.11 273.53374 
L 488.04 275.006694 
L 489.9 279.190787 
L 491.295 280.899498 
L 493.62 285.647015 
L 494.55 287.116271 
L 495.48 288.140432 
L 495.945 288.367627 
L 496.41 288.372737 
L 497.805 287.759334 
L 498.27 287.852926 
L 498.735 288.31685 
L 499.665 290.149035 
L 500.13 291.137304 
L 500.595 291.856193 
L 501.06 292.120941 
L 501.525 291.873142 
L 501.99 291.420623 
L 502.455 291.603532 
L 502.92 293.035363 
L 503.85 296.930633 
L 504.315 298.012054 
L 505.245 299.194219 
L 506.64 300.466944 
L 507.57 300.951463 
L 508.035 301.025357 
L 508.5 300.966313 
L 508.965 300.762833 
L 509.43 300.406625 
L 509.895 299.891171 
L 510.36 299.201773 
L 510.825 298.276648 
L 511.29 296.937364 
L 511.755 294.931559 
L 512.685 289.740453 
L 513.15 288.045229 
L 513.615 287.306974 
L 514.08 287.090083 
L 514.545 287.145694 
L 516.405 288.140803 
L 516.87 287.947227 
L 517.335 287.393196 
L 518.265 285.425923 
L 518.73 284.843424 
L 519.195 285.070965 
L 520.59 287.53126 
L 521.055 287.846547 
L 521.52 287.889576 
L 522.45 287.55743 
L 523.38 286.999754 
L 524.31 286.131799 
L 524.775 285.510626 
L 525.24 284.658508 
L 525.705 283.443611 
L 526.635 280.454435 
L 527.1 279.688604 
L 527.565 279.826599 
L 528.03 280.592249 
L 528.96 282.996262 
L 531.75 292.332094 
L 532.68 295.279406 
L 533.145 296.025654 
L 533.61 296.066941 
L 534.075 295.5138 
L 534.54 294.728008 
L 535.005 294.255518 
L 535.47 294.669614 
L 535.935 296.216394 
L 536.865 300.829372 
L 537.33 302.55271 
L 537.795 303.505092 
L 538.26 303.776487 
L 539.19 303.57117 
L 540.12 304.128462 
L 541.05 303.989771 
L 541.515 304.854367 
L 541.98 306.198336 
L 542.445 307.075105 
L 543.375 307.661367 
L 544.305 308.248727 
L 546.165 309.797455 
L 548.49 311.792747 
L 549.42 312.120932 
L 551.28 312.108023 
L 551.745 312.074839 
L 552.21 311.829902 
L 552.675 311.19133 
L 553.605 309.263473 
L 554.07 309.173914 
L 554.535 310.23708 
L 555.465 313.753995 
L 555.93 315.0762 
L 556.395 315.960357 
L 556.86 316.519578 
L 557.325 316.837537 
L 557.79 316.952453 
L 558.255 316.877962 
L 558.72 316.620484 
L 559.65 315.658706 
L 560.58 314.675048 
L 561.045 314.500666 
L 561.51 314.641893 
L 562.44 315.595517 
L 563.37 316.533008 
L 564.3 316.945677 
L 567.09 317.528421 
L 567.555 317.307394 
L 568.02 316.855415 
L 568.485 316.589448 
L 568.95 317.169642 
L 569.415 318.786443 
L 570.345 322.925085 
L 571.275 326.053001 
L 572.205 328.4736 
L 573.6 331.488444 
L 575.46 334.986059 
L 576.39 336.4247 
L 577.32 337.508424 
L 578.25 338.173114 
L 579.18 338.437146 
L 579.645 338.415649 
L 580.11 338.228839 
L 580.575 337.717785 
L 581.04 336.668741 
L 581.97 333.822176 
L 582.435 333.565214 
L 582.9 334.526296 
L 583.83 338.032001 
L 585.225 343.608121 
L 586.155 346.562706 
L 587.55 349.999912 
L 589.41 353.906417 
L 590.805 356.481125 
L 592.2 358.593295 
L 593.595 360.175288 
L 594.99 361.279712 
L 596.385 362.013179 
L 597.78 362.481881 
L 599.64 362.839676 
L 601.965 363.046235 
L 606.15 363.154177 
L 621.495 363.174539 
L 648 363.174545 
L 648 363.174545 
" style="fill:none;stroke:#440154;stroke-linecap:square;stroke-width:3;"/>
   </g>
   <g id="line2d_8">
    <path clip-path="url(#p62f2bbe5e4)" d="M 89.535 363.174545 
L 162.54 363.067484 
L 173.235 363.021106 
L 189.045 362.939385 
L 198.81 362.681967 
L 204.855 362.384384 
L 217.41 361.426424 
L 219.27 360.9749 
L 221.13 360.047688 
L 222.06 359.53187 
L 222.525 359.450826 
L 223.455 359.858053 
L 223.92 360.053389 
L 224.385 360.073807 
L 226.245 359.461569 
L 229.035 359.413 
L 230.895 359.092712 
L 235.545 358.163481 
L 240.66 357.007334 
L 249.495 354.664359 
L 251.82 353.92049 
L 254.145 352.876396 
L 256.005 351.81933 
L 257.865 350.480505 
L 258.33 350.356503 
L 260.19 350.3825 
L 261.585 350.003874 
L 262.515 349.580956 
L 264.84 348.083841 
L 265.77 347.619082 
L 266.235 347.208857 
L 267.63 345.445113 
L 268.095 345.153632 
L 269.025 345.114629 
L 269.955 345.068828 
L 271.35 344.771313 
L 272.28 344.392977 
L 272.745 344.057217 
L 273.675 343.113368 
L 274.14 342.982013 
L 274.605 343.335266 
L 275.535 344.541754 
L 276.465 345.357238 
L 277.86 346.210771 
L 279.255 346.758841 
L 280.65 346.995824 
L 282.045 346.986186 
L 283.905 346.667048 
L 288.09 345.836824 
L 292.275 345.107597 
L 294.135 344.525891 
L 295.065 344.07803 
L 295.995 343.314004 
L 296.46 342.876797 
L 296.925 342.598557 
L 297.39 342.5661 
L 298.785 342.978364 
L 299.715 343.867283 
L 300.18 344.301792 
L 300.645 344.486386 
L 301.11 344.359266 
L 301.575 343.947428 
L 302.505 342.863272 
L 303.9 341.889248 
L 304.365 341.289405 
L 305.76 339.005847 
L 306.225 338.692204 
L 307.155 338.500374 
L 307.62 337.977152 
L 308.55 336.023631 
L 309.015 336.200609 
L 309.945 338.41844 
L 310.41 339.094877 
L 310.875 339.365417 
L 311.34 339.35249 
L 313.2 338.662624 
L 314.13 338.234699 
L 314.595 338.467195 
L 315.525 339.790718 
L 315.99 340.148835 
L 316.455 340.09231 
L 317.85 338.952465 
L 318.315 338.975788 
L 318.78 339.174952 
L 319.71 339.218644 
L 321.105 339.017324 
L 322.035 338.626392 
L 324.36 337.471341 
L 326.22 336.665347 
L 327.15 335.999539 
L 329.94 333.400478 
L 331.8 332.310286 
L 332.265 331.821571 
L 333.66 329.72644 
L 334.125 329.615663 
L 335.055 330.245411 
L 335.52 330.324506 
L 336.45 329.951555 
L 337.38 329.241436 
L 338.31 328.223715 
L 339.705 326.352654 
L 341.565 323.567911 
L 342.03 323.104164 
L 342.495 322.972964 
L 342.96 323.233536 
L 343.89 324.127912 
L 344.355 324.748294 
L 345.75 327.377917 
L 346.215 327.789801 
L 347.145 328.052278 
L 349.47 328.278991 
L 351.795 328.768741 
L 352.725 328.657326 
L 354.12 328.335643 
L 355.05 328.464751 
L 357.84 329.810887 
L 358.77 330.554464 
L 359.7 331.291701 
L 361.095 332.272852 
L 362.025 332.865868 
L 362.955 333.004812 
L 366.21 332.76182 
L 368.07 332.893438 
L 368.535 332.761868 
L 369 332.471458 
L 369.93 331.374166 
L 370.86 330.031616 
L 371.325 329.543475 
L 371.79 329.300233 
L 372.255 329.372422 
L 372.72 329.814522 
L 373.185 330.613472 
L 374.58 333.552308 
L 375.045 334.199019 
L 375.975 334.947835 
L 376.905 335.263263 
L 377.37 335.282209 
L 377.835 335.189944 
L 378.3 334.971446 
L 379.23 334.165662 
L 380.625 332.687051 
L 381.09 332.373678 
L 381.555 332.20273 
L 382.485 332.186522 
L 383.415 332.214127 
L 385.275 331.967353 
L 385.74 332.091607 
L 386.67 332.669494 
L 388.065 333.736677 
L 388.995 334.140286 
L 389.925 334.234586 
L 390.855 334.085137 
L 391.785 333.735293 
L 392.715 333.139869 
L 393.645 332.218874 
L 394.575 331.211234 
L 395.04 330.888842 
L 395.505 330.797602 
L 396.435 331.127698 
L 396.9 331.005009 
L 397.365 330.237294 
L 397.83 329.190005 
L 398.295 328.796284 
L 398.76 329.361472 
L 399.69 331.158786 
L 400.155 331.714135 
L 401.085 332.251513 
L 402.015 332.365595 
L 402.48 332.228563 
L 403.41 331.576859 
L 404.805 330.064067 
L 405.27 329.305265 
L 406.2 326.892949 
L 406.665 326.447006 
L 407.595 326.843697 
L 408.525 326.656026 
L 409.455 327.035017 
L 410.385 327.404614 
L 411.78 327.424365 
L 413.175 327.52736 
L 414.57 327.680642 
L 415.965 327.78181 
L 417.36 328.121041 
L 417.825 328.0728 
L 418.29 327.889515 
L 419.22 327.165894 
L 420.15 326.220394 
L 420.615 325.599959 
L 422.01 322.763045 
L 422.475 323.081236 
L 423.87 325.30467 
L 424.8 326.265109 
L 425.265 326.468681 
L 425.73 326.388022 
L 426.195 326.0219 
L 426.66 325.417424 
L 427.59 323.675097 
L 428.52 321.891354 
L 428.985 321.418656 
L 429.45 321.37566 
L 429.915 321.707886 
L 431.775 323.783552 
L 432.24 323.844694 
L 432.705 323.548235 
L 433.635 322.490055 
L 434.1 322.384751 
L 434.565 322.805294 
L 436.425 325.70866 
L 436.89 326.293878 
L 437.355 326.683689 
L 437.82 326.834177 
L 438.285 326.78813 
L 439.68 326.186896 
L 442.47 324.963331 
L 444.33 323.813967 
L 445.26 323.38245 
L 446.19 322.529314 
L 446.655 322.346124 
L 447.585 322.587591 
L 448.05 322.791915 
L 449.445 323.697273 
L 449.91 323.675828 
L 450.84 323.221248 
L 452.235 322.497848 
L 453.165 322.254646 
L 454.56 322.14615 
L 455.025 322.263279 
L 455.49 322.556852 
L 456.885 323.754216 
L 457.815 323.581666 
L 458.28 323.885716 
L 459.21 325.34764 
L 459.675 325.688551 
L 460.605 325.839987 
L 462.465 326.078518 
L 463.86 326.537174 
L 465.72 327.213145 
L 466.185 327.726091 
L 468.045 330.67774 
L 468.51 330.973713 
L 469.44 331.21637 
L 470.835 331.538148 
L 472.23 331.898208 
L 472.695 331.900813 
L 473.16 331.748013 
L 473.625 331.308631 
L 474.09 330.452559 
L 474.555 329.340843 
L 475.02 328.522275 
L 475.485 328.348992 
L 476.415 328.669146 
L 476.88 328.505866 
L 477.345 328.092519 
L 478.275 326.840554 
L 479.205 325.180943 
L 480.135 322.755314 
L 480.6 321.474179 
L 481.065 320.842422 
L 481.53 321.019449 
L 481.995 321.38391 
L 483.855 322.099739 
L 487.11 324.142293 
L 488.04 324.904385 
L 489.435 326.238653 
L 489.9 326.370202 
L 490.83 326.23886 
L 491.295 326.545633 
L 493.155 329.060372 
L 494.55 330.298256 
L 495.48 330.898433 
L 496.41 331.175104 
L 497.805 331.250481 
L 498.27 331.4201 
L 498.735 331.753004 
L 501.06 334.067119 
L 502.455 334.241421 
L 502.92 334.855891 
L 503.85 336.409822 
L 504.315 336.8362 
L 505.245 337.245324 
L 506.175 337.409359 
L 507.105 337.33888 
L 508.035 337.048604 
L 510.36 335.97203 
L 511.29 335.358012 
L 511.755 334.826935 
L 513.615 332.03363 
L 514.08 331.711561 
L 514.545 331.645014 
L 516.405 332.287308 
L 517.335 332.199702 
L 518.73 332.007556 
L 520.125 332.254681 
L 521.055 332.025507 
L 522.45 331.570118 
L 524.31 331.190542 
L 525.24 330.749591 
L 526.17 329.801405 
L 526.635 329.284718 
L 527.1 329.040241 
L 527.565 329.170676 
L 528.495 330.078409 
L 529.89 331.982615 
L 531.285 334.09536 
L 533.145 337.16388 
L 534.075 337.98066 
L 535.005 338.481424 
L 535.47 338.959382 
L 535.935 339.749063 
L 537.33 342.529155 
L 537.795 343.003325 
L 538.26 343.196747 
L 539.19 343.258968 
L 540.585 343.668452 
L 541.05 343.722746 
L 541.515 344.158345 
L 541.98 344.791013 
L 542.445 345.219983 
L 543.375 345.555225 
L 546.165 346.476687 
L 548.955 347.381975 
L 550.815 347.510701 
L 552.21 347.543337 
L 552.675 347.356248 
L 553.605 346.737076 
L 554.07 346.747924 
L 554.535 347.181779 
L 555.465 348.541301 
L 555.93 349.04585 
L 556.86 349.598553 
L 557.79 349.799287 
L 558.72 349.784396 
L 561.51 349.462799 
L 564.765 350.041282 
L 567.09 350.249225 
L 568.02 349.93378 
L 568.485 349.793575 
L 568.95 349.995372 
L 569.415 350.618107 
L 570.345 352.21592 
L 571.275 353.367766 
L 572.205 354.197058 
L 573.6 355.128381 
L 575.925 356.336201 
L 577.32 356.853624 
L 578.715 357.130877 
L 580.11 357.182292 
L 580.575 357.07623 
L 581.04 356.806219 
L 581.97 356.024334 
L 582.435 355.994812 
L 582.9 356.326963 
L 585.225 358.737857 
L 586.62 359.719672 
L 588.945 360.90141 
L 591.27 361.864962 
L 593.13 362.417744 
L 595.455 362.829179 
L 598.245 363.053981 
L 602.895 363.157417 
L 621.495 363.174544 
L 648 363.174545 
L 648 363.174545 
" style="fill:none;stroke:#3b528b;stroke-linecap:square;stroke-width:3;"/>
   </g>
   <g id="line2d_9">
    <path clip-path="url(#p62f2bbe5e4)" d="M 89.535 363.174545 
L 143.475 363.078324 
L 146.73 362.870072 
L 149.055 362.502134 
L 150.915 361.939449 
L 152.31 361.26798 
L 153.705 360.304254 
L 155.1 358.976452 
L 156.495 357.206518 
L 157.89 354.90541 
L 159.285 352.031889 
L 160.68 348.616179 
L 163.47 341.21787 
L 164.865 338.667721 
L 165.33 338.030179 
L 166.26 337.487477 
L 167.655 336.805229 
L 168.585 336.659128 
L 169.515 336.782028 
L 170.445 337.237958 
L 174.165 339.834559 
L 175.095 340.196237 
L 176.025 341.044334 
L 177.42 342.335023 
L 178.815 343.458403 
L 179.745 344.010909 
L 181.605 344.754349 
L 183 345.101044 
L 184.395 345.223554 
L 185.79 345.134486 
L 189.045 344.766869 
L 189.975 344.693828 
L 190.905 344.396474 
L 194.16 342.761846 
L 195.09 342.197634 
L 196.02 341.868683 
L 199.74 341.140827 
L 201.135 340.453981 
L 202.995 339.291465 
L 204.39 338.118641 
L 207.18 335.347403 
L 208.575 334.761261 
L 210.435 333.86623 
L 211.83 333.302488 
L 213.225 332.907613 
L 214.155 332.437863 
L 215.55 331.488284 
L 216.015 331.521437 
L 216.945 331.949726 
L 218.34 331.384774 
L 218.805 331.43284 
L 219.27 331.059486 
L 221.13 328.297981 
L 222.06 326.12089 
L 222.525 325.467387 
L 222.99 325.707963 
L 224.385 328.743422 
L 224.85 328.935173 
L 225.78 328.646696 
L 226.245 328.757043 
L 227.175 329.529426 
L 228.105 330.306905 
L 229.035 330.774749 
L 229.5 330.761845 
L 229.965 330.48272 
L 231.36 328.834961 
L 231.825 328.661524 
L 232.755 328.67638 
L 233.22 328.848428 
L 234.615 330.511696 
L 235.545 330.907874 
L 236.94 331.245609 
L 237.87 331.308048 
L 238.8 331.200623 
L 240.195 330.804996 
L 243.915 329.58884 
L 247.17 328.950962 
L 248.1 328.444842 
L 249.03 327.650172 
L 249.495 327.462717 
L 249.96 327.771052 
L 250.89 329.006798 
L 251.355 329.30801 
L 251.82 329.34899 
L 252.75 328.978743 
L 253.68 328.363934 
L 254.61 327.352189 
L 255.54 326.266379 
L 257.4 324.390333 
L 257.865 324.344198 
L 258.33 324.711332 
L 259.725 326.442291 
L 260.19 326.682797 
L 261.12 326.778063 
L 261.585 326.699498 
L 262.05 326.507179 
L 262.98 325.721113 
L 263.91 324.889895 
L 264.375 324.75432 
L 266.7 325.07009 
L 267.63 325.056049 
L 268.095 325.250381 
L 270.42 326.916686 
L 271.815 327.482478 
L 272.745 327.664068 
L 273.675 327.644541 
L 274.14 327.766812 
L 275.07 328.545634 
L 276 329.347116 
L 276.93 329.861246 
L 279.72 330.753289 
L 282.045 331.402303 
L 282.51 331.082916 
L 282.975 330.433968 
L 284.835 327.126234 
L 285.3 326.785336 
L 286.23 326.621602 
L 289.485 326.695132 
L 292.74 326.537987 
L 293.67 326.734311 
L 295.53 327.595377 
L 295.995 327.568356 
L 296.925 327.116763 
L 298.32 326.397519 
L 298.785 326.51538 
L 299.25 327.114155 
L 300.645 329.795647 
L 301.11 330.427921 
L 301.575 330.871493 
L 302.505 331.358794 
L 303.435 331.633333 
L 303.9 331.615071 
L 304.365 331.425738 
L 306.225 330.108686 
L 308.085 329.795369 
L 308.55 329.620022 
L 309.015 329.833565 
L 310.41 331.330391 
L 311.34 331.737711 
L 312.27 331.699859 
L 313.2 331.321946 
L 314.13 330.875742 
L 314.595 330.832621 
L 315.525 331.08549 
L 315.99 331.032834 
L 316.455 330.600912 
L 317.85 328.158215 
L 318.315 328.318467 
L 319.245 329.706385 
L 319.71 330.087122 
L 320.64 330.391585 
L 322.965 330.506013 
L 324.36 331.052776 
L 326.22 331.782246 
L 327.615 332.01105 
L 328.545 332.000673 
L 329.01 331.908489 
L 329.475 331.648954 
L 330.405 330.586109 
L 330.87 330.359373 
L 331.335 330.670437 
L 331.8 331.168413 
L 332.265 331.383981 
L 332.73 331.208532 
L 333.66 330.440442 
L 334.125 330.274508 
L 336.45 330.413194 
L 336.915 330.286142 
L 337.38 330.035167 
L 338.31 329.089775 
L 338.775 328.60012 
L 339.24 328.290632 
L 339.705 328.182403 
L 341.1 328.301514 
L 341.565 328.033163 
L 342.495 326.906994 
L 342.96 326.717312 
L 343.425 326.984162 
L 343.89 327.496723 
L 344.355 328.26106 
L 346.215 332.390797 
L 346.68 332.90826 
L 347.61 333.482793 
L 349.47 334.062005 
L 350.4 334.160924 
L 350.865 334.063311 
L 351.795 333.536567 
L 354.12 331.642801 
L 355.05 331.330125 
L 356.445 331.253012 
L 358.305 331.243828 
L 358.77 331.114411 
L 359.235 330.74501 
L 360.165 329.737871 
L 360.63 329.688077 
L 362.49 330.733856 
L 363.42 330.772207 
L 364.815 330.790281 
L 366.675 331.27635 
L 369 331.999229 
L 369.93 331.892155 
L 370.86 331.726518 
L 371.325 331.772745 
L 371.79 331.945928 
L 372.72 332.666855 
L 374.115 334.153855 
L 374.58 334.491336 
L 375.045 334.673106 
L 375.51 334.706132 
L 376.44 334.438513 
L 377.37 333.894095 
L 380.625 331.628086 
L 382.485 330.581024 
L 382.95 330.510053 
L 383.415 330.207132 
L 384.345 329.265979 
L 384.81 329.192168 
L 385.275 329.494556 
L 386.67 330.874303 
L 387.6 331.41806 
L 392.25 333.435746 
L 395.505 334.991219 
L 396.9 335.973667 
L 398.295 336.122524 
L 399.225 336.93042 
L 400.155 337.619369 
L 401.085 337.885598 
L 405.27 338.315346 
L 406.665 337.998891 
L 407.13 337.855486 
L 407.595 337.442538 
L 408.06 336.823761 
L 408.525 336.549309 
L 409.455 337.298629 
L 409.92 337.357606 
L 410.85 336.714518 
L 411.315 336.750563 
L 412.71 338.441282 
L 413.64 338.83266 
L 417.825 339.597581 
L 418.755 339.455181 
L 420.615 338.677812 
L 421.545 338.209576 
L 422.01 338.211687 
L 422.94 338.905306 
L 423.87 339.487065 
L 424.335 339.510371 
L 424.8 339.314846 
L 425.73 338.66005 
L 426.195 338.533785 
L 428.055 338.61711 
L 429.45 338.547423 
L 430.845 338.456727 
L 432.24 338.055032 
L 434.565 337.227569 
L 435.03 336.873506 
L 435.495 336.231699 
L 435.96 335.820792 
L 436.425 336.142437 
L 436.89 336.758895 
L 437.355 337.159034 
L 438.75 337.708557 
L 439.68 337.813641 
L 440.61 337.621564 
L 443.4 336.534959 
L 444.33 336.52291 
L 445.725 336.88107 
L 446.19 337.086724 
L 446.655 337.45705 
L 448.05 339.134531 
L 449.445 340.779907 
L 450.375 341.458606 
L 452.7 342.757066 
L 455.025 344.308303 
L 456.885 345.205064 
L 462 346.851645 
L 462.93 347.419774 
L 464.325 348.359512 
L 465.255 348.900286 
L 466.185 349.757142 
L 467.58 351.309243 
L 468.51 351.941749 
L 469.44 352.258381 
L 470.37 352.378147 
L 471.765 352.328439 
L 473.625 352.228422 
L 475.02 352.40475 
L 476.415 352.927199 
L 480.135 354.557452 
L 482.46 355.109441 
L 482.925 355.064909 
L 483.39 354.76796 
L 483.855 354.236625 
L 484.32 353.904596 
L 484.785 354.119569 
L 485.25 354.559 
L 485.715 354.765198 
L 486.645 354.557841 
L 487.575 354.4122 
L 488.04 354.504545 
L 488.97 355.025492 
L 490.83 356.333066 
L 492.225 356.966657 
L 493.62 357.237682 
L 495.48 357.283041 
L 498.735 357.246119 
L 500.595 357.506438 
L 506.175 358.494866 
L 513.15 358.882573 
L 514.545 358.978218 
L 516.405 359.418647 
L 518.73 360.043949 
L 519.66 360.062671 
L 520.59 359.725635 
L 521.52 359.393677 
L 521.985 359.472187 
L 524.31 360.70627 
L 525.705 360.994493 
L 533.145 362.016303 
L 536.865 362.550743 
L 539.19 362.709146 
L 545.235 362.855631 
L 566.625 362.958188 
L 575.46 363.069036 
L 601.035 363.174105 
L 648 363.174545 
L 648 363.174545 
" style="fill:none;stroke:#21918c;stroke-linecap:square;stroke-width:3;"/>
   </g>
   <g id="line2d_10">
    <path clip-path="url(#p62f2bbe5e4)" d="M 89.535 363.174545 
L 137.895 363.072835 
L 141.15 362.836687 
L 143.01 362.520525 
L 144.405 362.112786 
L 145.8 361.46631 
L 146.73 360.840926 
L 147.66 359.999919 
L 148.59 358.874982 
L 149.52 357.380293 
L 150.45 355.412357 
L 151.38 352.854057 
L 152.31 349.58389 
L 153.24 345.488129 
L 154.17 340.468933 
L 155.1 334.438138 
L 156.03 327.290665 
L 156.96 318.874892 
L 157.89 309.01497 
L 159.285 291.41191 
L 160.68 270.733203 
L 163.005 232.496347 
L 163.935 222.866997 
L 164.865 215.314151 
L 165.33 212.725989 
L 165.795 211.750159 
L 166.725 211.11563 
L 167.19 210.795688 
L 167.655 210.861517 
L 168.12 211.399559 
L 168.585 212.327778 
L 169.05 213.573234 
L 169.515 215.159199 
L 170.445 219.560522 
L 174.165 240.326924 
L 175.095 243.889393 
L 175.56 246.654654 
L 176.955 256.738537 
L 178.815 268.535449 
L 179.745 273.313136 
L 181.605 281.022306 
L 183 286.031036 
L 184.395 290.121664 
L 185.325 292.231271 
L 186.72 294.522399 
L 188.115 296.746438 
L 189.045 298.675059 
L 190.44 301.605025 
L 191.37 302.889835 
L 193.23 305.138239 
L 194.16 305.643067 
L 195.09 306.183262 
L 196.02 307.279237 
L 198.345 310.534795 
L 199.275 311.542955 
L 200.205 312.201452 
L 203.46 313.603459 
L 203.925 313.626743 
L 204.39 313.520114 
L 204.855 313.261215 
L 206.715 311.722289 
L 207.18 311.920432 
L 208.11 313.038367 
L 209.04 314.120736 
L 210.435 315.213922 
L 211.365 315.988676 
L 213.225 317.741246 
L 213.69 317.941393 
L 214.155 317.979784 
L 214.62 317.819511 
L 215.085 317.501484 
L 215.55 317.354597 
L 216.015 317.867537 
L 217.41 321.329935 
L 218.34 322.560278 
L 218.805 323.298038 
L 219.27 323.761516 
L 219.735 323.887856 
L 220.2 323.830678 
L 220.665 323.612611 
L 221.595 322.784691 
L 222.99 321.262201 
L 223.455 321.278431 
L 223.92 321.820612 
L 224.85 323.151637 
L 225.78 323.820076 
L 227.175 324.758313 
L 228.105 325.695862 
L 229.035 326.684744 
L 229.5 326.958743 
L 229.965 326.932081 
L 231.36 325.822509 
L 231.825 325.857852 
L 232.755 326.416708 
L 233.22 326.929838 
L 234.615 329.852811 
L 235.545 331.020382 
L 236.475 331.93622 
L 237.405 332.595143 
L 238.335 332.940312 
L 239.265 333.009238 
L 242.985 332.869875 
L 244.38 333.117521 
L 245.775 333.381888 
L 246.705 333.30255 
L 247.635 332.936143 
L 249.495 331.980424 
L 249.96 332.415794 
L 250.89 333.888631 
L 251.355 334.315825 
L 251.82 334.476561 
L 252.75 334.329751 
L 254.145 333.853976 
L 255.075 333.471483 
L 256.005 333.559684 
L 256.935 333.683016 
L 257.4 333.878934 
L 258.33 334.785963 
L 259.26 335.701542 
L 259.725 335.933937 
L 260.655 336.007552 
L 261.585 335.742303 
L 262.515 335.153349 
L 263.445 334.447818 
L 263.91 334.219667 
L 264.375 334.141619 
L 264.84 334.204041 
L 265.305 334.381346 
L 265.77 334.690635 
L 266.7 335.735528 
L 267.63 336.807476 
L 268.56 337.461102 
L 270.885 338.512685 
L 272.28 338.918047 
L 274.14 339.154155 
L 277.395 339.481004 
L 278.79 339.360733 
L 280.185 339.541999 
L 281.115 339.898039 
L 281.58 340.117433 
L 282.045 340.179429 
L 282.51 339.940685 
L 282.975 339.367394 
L 284.835 336.168906 
L 285.3 335.968701 
L 285.765 336.030349 
L 287.16 336.694473 
L 288.09 337.097454 
L 289.02 337.251929 
L 289.95 337.346459 
L 290.88 337.638545 
L 294.135 339.189764 
L 295.53 340.231064 
L 295.995 340.447108 
L 296.46 340.509983 
L 296.925 340.402505 
L 297.855 339.735046 
L 298.32 339.390218 
L 298.785 339.346525 
L 299.25 339.715879 
L 302.04 343.569808 
L 302.97 344.312491 
L 303.9 344.748016 
L 304.83 344.930491 
L 307.155 345.087458 
L 311.805 346.451273 
L 312.735 346.434035 
L 314.595 346.19533 
L 315.99 346.275117 
L 316.455 346.176336 
L 317.385 345.665859 
L 317.85 345.390763 
L 318.315 345.278451 
L 319.245 345.587963 
L 319.71 345.728575 
L 320.64 345.673555 
L 321.57 345.539953 
L 322.5 345.60372 
L 323.43 345.889206 
L 328.08 347.767903 
L 329.01 347.933137 
L 329.475 347.835504 
L 330.87 347.09067 
L 331.335 347.401529 
L 332.265 348.209419 
L 332.73 348.304514 
L 335.52 348.219228 
L 336.915 348.448566 
L 337.38 348.422 
L 339.24 347.875969 
L 339.705 348.022157 
L 341.1 348.751261 
L 341.565 348.704314 
L 342.96 347.942453 
L 343.425 348.126913 
L 346.68 350.31434 
L 347.61 350.467979 
L 350.4 350.482939 
L 351.33 350.166055 
L 352.725 349.304014 
L 353.655 348.761356 
L 354.585 348.410775 
L 355.98 348.118573 
L 358.77 347.766272 
L 359.7 347.066182 
L 360.165 346.747033 
L 360.63 346.689158 
L 362.49 347.287697 
L 364.35 347.338116 
L 366.675 347.624519 
L 371.325 348.307866 
L 372.72 348.870985 
L 374.115 349.409963 
L 375.045 349.490015 
L 375.975 349.321534 
L 377.835 348.634841 
L 379.23 348.162605 
L 382.485 347.67121 
L 383.415 347.680519 
L 384.345 347.449746 
L 384.81 347.5329 
L 385.74 348.148476 
L 386.67 348.784374 
L 388.065 349.419741 
L 397.365 352.910547 
L 399.225 353.28116 
L 401.085 353.380333 
L 402.945 353.463789 
L 404.805 353.833278 
L 406.665 354.136408 
L 407.13 354.097097 
L 407.595 353.898008 
L 408.06 353.576818 
L 408.525 353.434879 
L 409.455 353.845693 
L 409.92 353.855517 
L 410.85 353.474261 
L 411.315 353.517622 
L 412.71 354.583968 
L 413.64 354.840114 
L 419.22 355.68813 
L 422.01 355.932378 
L 424.335 356.252898 
L 426.195 356.021483 
L 427.59 356.549541 
L 428.985 356.667014 
L 430.845 356.55267 
L 432.24 356.487354 
L 433.635 356.638121 
L 434.565 356.760717 
L 435.03 356.673259 
L 435.96 356.261578 
L 436.425 356.477452 
L 437.355 357.093313 
L 439.68 357.908552 
L 441.075 358.150778 
L 445.26 358.675484 
L 447.585 359.249647 
L 450.84 360.125302 
L 454.56 360.78443 
L 457.35 361.026444 
L 466.185 361.558443 
L 469.44 361.866224 
L 474.09 361.960781 
L 478.74 362.212356 
L 482.925 362.353847 
L 484.785 362.241661 
L 486.18 362.336967 
L 488.505 362.333002 
L 494.55 362.663433 
L 548.025 363.174347 
L 648 363.174545 
L 648 363.174545 
" style="fill:none;stroke:#5ec962;stroke-linecap:square;stroke-width:3;"/>
   </g>
   <g id="line2d_11">
    <path clip-path="url(#p62f2bbe5e4)" d="M 89.535 363.174545 
L 135.105 363.076805 
L 138.36 362.835591 
L 140.22 362.507625 
L 141.615 362.082551 
L 143.01 361.407021 
L 143.94 360.752621 
L 144.87 359.871472 
L 145.8 358.690426 
L 146.73 357.114644 
L 147.66 355.021867 
L 148.59 352.256247 
L 149.52 348.624102 
L 150.45 343.89649 
L 151.38 337.824843 
L 152.31 330.172391 
L 153.24 320.75342 
L 154.17 309.457672 
L 155.565 288.86511 
L 156.96 263.460979 
L 158.355 232.130687 
L 159.75 194.753693 
L 161.145 152.036204 
L 162.54 106.037811 
L 163.005 93.920605 
L 163.47 84.917946 
L 164.4 73.492243 
L 164.865 69.169806 
L 165.33 66.665455 
L 165.795 66.671069 
L 166.725 69.402342 
L 167.19 71.210624 
L 167.655 73.800457 
L 168.585 81.282168 
L 169.515 90.788059 
L 170.445 102.321091 
L 173.235 139.087953 
L 174.165 150.637314 
L 175.095 159.803662 
L 176.025 172.941569 
L 177.42 192.65405 
L 179.28 216.296468 
L 180.675 229.830894 
L 182.535 245.611502 
L 183.93 255.715752 
L 184.86 261.507188 
L 185.79 266.147253 
L 191.835 291.70384 
L 193.23 296.327029 
L 194.625 299.63954 
L 195.555 302.069115 
L 197.415 307.292807 
L 198.81 310.573423 
L 199.74 312.393904 
L 203.46 318.3672 
L 204.39 319.357767 
L 204.855 319.583107 
L 205.32 319.610161 
L 206.25 319.458661 
L 206.715 319.690269 
L 207.18 320.318888 
L 209.97 325.830258 
L 212.76 330.193223 
L 213.69 331.189739 
L 214.155 331.513498 
L 215.55 331.953293 
L 216.015 332.577887 
L 217.41 335.927568 
L 218.34 337.213511 
L 219.27 338.121705 
L 219.735 338.328844 
L 220.665 338.356089 
L 222.06 337.980777 
L 222.99 337.579618 
L 223.455 337.635071 
L 223.92 338.040342 
L 224.85 339.103674 
L 225.78 339.740014 
L 227.64 340.780945 
L 229.5 342.216494 
L 229.965 342.408637 
L 230.895 342.452065 
L 231.825 342.575578 
L 232.755 343.02483 
L 233.22 343.372718 
L 236.01 346.303273 
L 237.405 347.274639 
L 238.335 347.673402 
L 239.73 347.974744 
L 242.52 348.441364 
L 246.24 349.234202 
L 247.635 349.116932 
L 249.03 348.931595 
L 249.495 348.982441 
L 250.425 349.4631 
L 251.355 349.909846 
L 252.285 350.024488 
L 254.145 350.030685 
L 255.075 350.171443 
L 257.865 351.178671 
L 259.26 351.874283 
L 260.19 352.084643 
L 261.585 352.067795 
L 264.84 351.667279 
L 265.77 351.894419 
L 268.095 353.200826 
L 270.42 353.589531 
L 272.28 353.845872 
L 276 354.126161 
L 278.325 354.38332 
L 280.185 354.646747 
L 282.045 355.049602 
L 282.975 354.879738 
L 284.835 353.894358 
L 285.765 353.914106 
L 289.02 354.552749 
L 290.415 354.73218 
L 296.46 356.353697 
L 297.39 356.27325 
L 298.785 356.061429 
L 299.715 356.362905 
L 302.04 357.373059 
L 303.435 357.72508 
L 305.295 357.967537 
L 313.665 358.491945 
L 322.965 358.485765 
L 326.685 358.963191 
L 329.01 359.188509 
L 331.8 359.23671 
L 332.73 359.338552 
L 339.705 359.435761 
L 341.565 359.640856 
L 343.425 359.589212 
L 347.145 360.099142 
L 350.865 360.100581 
L 357.84 359.600957 
L 359.235 359.519441 
L 360.63 359.38809 
L 364.35 359.549146 
L 371.325 359.827654 
L 375.51 360.097856 
L 383.88 359.871899 
L 385.275 359.955267 
L 389.46 360.452034 
L 398.76 361.192048 
L 407.13 361.452778 
L 409.455 361.438115 
L 412.245 361.540523 
L 414.105 361.665556 
L 425.265 362.004532 
L 426.66 362.06642 
L 428.985 362.181924 
L 436.425 362.34681 
L 438.75 362.552266 
L 442.935 362.709152 
L 464.325 363.069305 
L 513.615 363.166947 
L 648 363.174545 
L 648 363.174545 
" style="fill:none;stroke:#fde725;stroke-linecap:square;stroke-width:3;"/>
   </g>
   <g id="patch_3">
    <path d="M 90 378 
L 90 51.84 
" style="fill:none;stroke:#000000;stroke-linecap:square;stroke-linejoin:miter;stroke-width:0.8;"/>
   </g>
   <g id="patch_4">
    <path d="M 648 378 
L 648 51.84 
" style="fill:none;stroke:#000000;stroke-linecap:square;stroke-linejoin:miter;stroke-width:0.8;"/>
   </g>
   <g id="patch_5">
    <path d="M 90 378 
L 648 378 
" style="fill:none;stroke:#000000;stroke-linecap:square;stroke-linejoin:miter;stroke-width:0.8;"/>
   </g>
   <g id="patch_6">
    <path d="M 90 51.84 
L 648 51.84 
" style="fill:none;stroke:#000000;stroke-linecap:square;stroke-linejoin:miter;stroke-width:0.8;"/>
   </g>
   <g id="text_9">
    <!-- AIS Mass Loss in SLE (m) in 2100 under RCP8.5, LIG GMSL: {$\mu$=7.5, $\sigma$=0.5} -->
    <defs>
     <path d="M 34.1875 63.1875 
L 20.796875 26.90625 
L 47.609375 26.90625 
z
M 28.609375 72.90625 
L 39.796875 72.90625 
L 67.578125 0 
L 57.328125 0 
L 50.6875 18.703125 
L 17.828125 18.703125 
L 11.1875 0 
L 0.78125 0 
z
" id="DejaVuSans-65"/>
     <path d="M 9.8125 72.90625 
L 19.671875 72.90625 
L 19.671875 0 
L 9.8125 0 
z
" id="DejaVuSans-73"/>
     <path d="M 9.8125 72.90625 
L 24.515625 72.90625 
L 43.109375 23.296875 
L 61.8125 72.90625 
L 76.515625 72.90625 
L 76.515625 0 
L 66.890625 0 
L 66.890625 64.015625 
L 48.09375 14.015625 
L 38.1875 14.015625 
L 19.390625 64.015625 
L 19.390625 0 
L 9.8125 0 
z
" id="DejaVuSans-77"/>
     <path d="M 9.8125 72.90625 
L 55.90625 72.90625 
L 55.90625 64.59375 
L 19.671875 64.59375 
L 19.671875 43.015625 
L 54.390625 43.015625 
L 54.390625 34.71875 
L 19.671875 34.71875 
L 19.671875 8.296875 
L 56.78125 8.296875 
L 56.78125 0 
L 9.8125 0 
z
" id="DejaVuSans-69"/>
     <path d="M 45.40625 46.390625 
L 45.40625 75.984375 
L 54.390625 75.984375 
L 54.390625 0 
L 45.40625 0 
L 45.40625 8.203125 
Q 42.578125 3.328125 38.25 0.953125 
Q 33.9375 -1.421875 27.875 -1.421875 
Q 17.96875 -1.421875 11.734375 6.484375 
Q 5.515625 14.40625 5.515625 27.296875 
Q 5.515625 40.1875 11.734375 48.09375 
Q 17.96875 56 27.875 56 
Q 33.9375 56 38.25 53.625 
Q 42.578125 51.265625 45.40625 46.390625 
z
M 14.796875 27.296875 
Q 14.796875 17.390625 18.875 11.75 
Q 22.953125 6.109375 30.078125 6.109375 
Q 37.203125 6.109375 41.296875 11.75 
Q 45.40625 17.390625 45.40625 27.296875 
Q 45.40625 37.203125 41.296875 42.84375 
Q 37.203125 48.484375 30.078125 48.484375 
Q 22.953125 48.484375 18.875 42.84375 
Q 14.796875 37.203125 14.796875 27.296875 
z
" id="DejaVuSans-100"/>
     <path d="M 44.390625 34.1875 
Q 47.5625 33.109375 50.5625 29.59375 
Q 53.5625 26.078125 56.59375 19.921875 
L 66.609375 0 
L 56 0 
L 46.6875 18.703125 
Q 43.0625 26.03125 39.671875 28.421875 
Q 36.28125 30.8125 30.421875 30.8125 
L 19.671875 30.8125 
L 19.671875 0 
L 9.8125 0 
L 9.8125 72.90625 
L 32.078125 72.90625 
Q 44.578125 72.90625 50.734375 67.671875 
Q 56.890625 62.453125 56.890625 51.90625 
Q 56.890625 45.015625 53.6875 40.46875 
Q 50.484375 35.9375 44.390625 34.1875 
z
M 19.671875 64.796875 
L 19.671875 38.921875 
L 32.078125 38.921875 
Q 39.203125 38.921875 42.84375 42.21875 
Q 46.484375 45.515625 46.484375 51.90625 
Q 46.484375 58.296875 42.84375 61.546875 
Q 39.203125 64.796875 32.078125 64.796875 
z
" id="DejaVuSans-82"/>
     <path d="M 19.671875 64.796875 
L 19.671875 37.40625 
L 32.078125 37.40625 
Q 38.96875 37.40625 42.71875 40.96875 
Q 46.484375 44.53125 46.484375 51.125 
Q 46.484375 57.671875 42.71875 61.234375 
Q 38.96875 64.796875 32.078125 64.796875 
z
M 9.8125 72.90625 
L 32.078125 72.90625 
Q 44.34375 72.90625 50.609375 67.359375 
Q 56.890625 61.8125 56.890625 51.125 
Q 56.890625 40.328125 50.609375 34.8125 
Q 44.34375 29.296875 32.078125 29.296875 
L 19.671875 29.296875 
L 19.671875 0 
L 9.8125 0 
z
" id="DejaVuSans-80"/>
     <path d="M 10.796875 72.90625 
L 49.515625 72.90625 
L 49.515625 64.59375 
L 19.828125 64.59375 
L 19.828125 46.734375 
Q 21.96875 47.46875 24.109375 47.828125 
Q 26.265625 48.1875 28.421875 48.1875 
Q 40.625 48.1875 47.75 41.5 
Q 54.890625 34.8125 54.890625 23.390625 
Q 54.890625 11.625 47.5625 5.09375 
Q 40.234375 -1.421875 26.90625 -1.421875 
Q 22.3125 -1.421875 17.546875 -0.640625 
Q 12.796875 0.140625 7.71875 1.703125 
L 7.71875 11.625 
Q 12.109375 9.234375 16.796875 8.0625 
Q 21.484375 6.890625 26.703125 6.890625 
Q 35.15625 6.890625 40.078125 11.328125 
Q 45.015625 15.765625 45.015625 23.390625 
Q 45.015625 31 40.078125 35.4375 
Q 35.15625 39.890625 26.703125 39.890625 
Q 22.75 39.890625 18.8125 39.015625 
Q 14.890625 38.140625 10.796875 36.28125 
z
" id="DejaVuSans-53"/>
     <path d="M 11.71875 12.40625 
L 22.015625 12.40625 
L 22.015625 4 
L 14.015625 -11.625 
L 7.71875 -11.625 
L 11.71875 4 
z
" id="DejaVuSans-44"/>
     <path d="M 59.515625 10.40625 
L 59.515625 29.984375 
L 43.40625 29.984375 
L 43.40625 38.09375 
L 69.28125 38.09375 
L 69.28125 6.78125 
Q 63.578125 2.734375 56.6875 0.65625 
Q 49.8125 -1.421875 42 -1.421875 
Q 24.90625 -1.421875 15.25 8.5625 
Q 5.609375 18.5625 5.609375 36.375 
Q 5.609375 54.25 15.25 64.234375 
Q 24.90625 74.21875 42 74.21875 
Q 49.125 74.21875 55.546875 72.453125 
Q 61.96875 70.703125 67.390625 67.28125 
L 67.390625 56.78125 
Q 61.921875 61.421875 55.765625 63.765625 
Q 49.609375 66.109375 42.828125 66.109375 
Q 29.4375 66.109375 22.71875 58.640625 
Q 16.015625 51.171875 16.015625 36.375 
Q 16.015625 21.625 22.71875 14.15625 
Q 29.4375 6.6875 42.828125 6.6875 
Q 48.046875 6.6875 52.140625 7.59375 
Q 56.25 8.5 59.515625 10.40625 
z
" id="DejaVuSans-71"/>
     <path d="M 11.71875 12.40625 
L 22.015625 12.40625 
L 22.015625 0 
L 11.71875 0 
z
M 11.71875 51.703125 
L 22.015625 51.703125 
L 22.015625 39.3125 
L 11.71875 39.3125 
z
" id="DejaVuSans-58"/>
     <path d="M 51.125 -9.28125 
L 51.125 -16.3125 
L 48.09375 -16.3125 
Q 35.9375 -16.3125 31.8125 -12.6875 
Q 27.6875 -9.078125 27.6875 1.703125 
L 27.6875 13.375 
Q 27.6875 20.75 25.046875 23.578125 
Q 22.40625 26.421875 15.484375 26.421875 
L 12.5 26.421875 
L 12.5 33.40625 
L 15.484375 33.40625 
Q 22.46875 33.40625 25.078125 36.203125 
Q 27.6875 39.015625 27.6875 46.296875 
L 27.6875 58.015625 
Q 27.6875 68.796875 31.8125 72.390625 
Q 35.9375 75.984375 48.09375 75.984375 
L 51.125 75.984375 
L 51.125 69 
L 47.796875 69 
Q 40.921875 69 38.8125 66.84375 
Q 36.71875 64.703125 36.71875 57.8125 
L 36.71875 45.703125 
Q 36.71875 38.03125 34.5 34.5625 
Q 32.28125 31.109375 26.90625 29.890625 
Q 32.328125 28.5625 34.515625 25.09375 
Q 36.71875 21.625 36.71875 14.015625 
L 36.71875 1.90625 
Q 36.71875 -4.984375 38.8125 -7.125 
Q 40.921875 -9.28125 47.796875 -9.28125 
z
" id="DejaVuSans-123"/>
     <path d="M -1.3125 -20.796875 
L 13.375 54.6875 
L 22.40625 54.6875 
L 15.765625 20.65625 
Q 15.578125 19.625 15.421875 18.359375 
Q 15.28125 17.09375 15.28125 15.828125 
Q 15.28125 11.28125 18.140625 8.828125 
Q 21 6.390625 26.3125 6.390625 
Q 33.546875 6.390625 37.984375 10.484375 
Q 42.4375 14.59375 44 22.796875 
L 50.203125 54.6875 
L 59.1875 54.6875 
L 51.03125 12.640625 
Q 50.828125 11.71875 50.75 11.03125 
Q 50.6875 10.359375 50.6875 9.8125 
Q 50.6875 8.296875 51.296875 7.59375 
Q 51.90625 6.890625 53.21875 6.890625 
Q 53.71875 6.890625 54.5625 7.125 
Q 55.421875 7.375 56.984375 8.015625 
L 55.609375 0.78125 
Q 53.46875 -0.296875 51.515625 -0.859375 
Q 49.5625 -1.421875 47.703125 -1.421875 
Q 44.484375 -1.421875 42.65625 0.625 
Q 40.828125 2.6875 40.828125 6.296875 
Q 38.09375 2.390625 34.296875 0.484375 
Q 30.515625 -1.421875 25.390625 -1.421875 
Q 20.84375 -1.421875 17.453125 0.671875 
Q 14.0625 2.78125 12.984375 6.203125 
L 7.71875 -20.796875 
z
" id="DejaVuSans-Oblique-956"/>
     <path d="M 10.59375 45.40625 
L 73.1875 45.40625 
L 73.1875 37.203125 
L 10.59375 37.203125 
z
M 10.59375 25.484375 
L 73.1875 25.484375 
L 73.1875 17.1875 
L 10.59375 17.1875 
z
" id="DejaVuSans-61"/>
     <path d="M 8.203125 72.90625 
L 55.078125 72.90625 
L 55.078125 68.703125 
L 28.609375 0 
L 18.3125 0 
L 43.21875 64.59375 
L 8.203125 64.59375 
z
" id="DejaVuSans-55"/>
     <path d="M 34.671875 47.5625 
Q 27.25 47.5625 22.21875 42.1875 
Q 16.890625 36.578125 15.140625 27.296875 
Q 13.1875 17.484375 16.3125 11.8125 
Q 19.390625 6.203125 26.65625 6.203125 
Q 33.84375 6.203125 39.109375 11.859375 
Q 44.4375 17.53125 46.34375 27.296875 
Q 48.046875 36.234375 45.015625 42.1875 
Q 42.1875 47.5625 34.671875 47.5625 
z
M 36.078125 54.734375 
L 65.921875 54.6875 
L 64.15625 45.703125 
L 54.109375 45.703125 
Q 57.90625 38.09375 55.859375 27.296875 
Q 53.21875 13.875 45.0625 6.25 
Q 36.859375 -1.421875 25.140625 -1.421875 
Q 13.375 -1.421875 8.203125 6.25 
Q 3.03125 13.875 5.671875 27.296875 
Q 8.25 40.765625 16.40625 48.390625 
Q 23.1875 54.734375 36.078125 54.734375 
z
" id="DejaVuSans-Oblique-963"/>
     <path d="M 12.5 -9.28125 
L 15.921875 -9.28125 
Q 22.75 -9.28125 24.828125 -7.171875 
Q 26.90625 -5.078125 26.90625 1.90625 
L 26.90625 14.015625 
Q 26.90625 21.625 29.09375 25.09375 
Q 31.296875 28.5625 36.71875 29.890625 
Q 31.296875 31.109375 29.09375 34.5625 
Q 26.90625 38.03125 26.90625 45.703125 
L 26.90625 57.8125 
Q 26.90625 64.75 24.828125 66.875 
Q 22.75 69 15.921875 69 
L 12.5 69 
L 12.5 75.984375 
L 15.578125 75.984375 
Q 27.734375 75.984375 31.8125 72.390625 
Q 35.890625 68.796875 35.890625 58.015625 
L 35.890625 46.296875 
Q 35.890625 39.015625 38.515625 36.203125 
Q 41.15625 33.40625 48.09375 33.40625 
L 51.125 33.40625 
L 51.125 26.421875 
L 48.09375 26.421875 
Q 41.15625 26.421875 38.515625 23.578125 
Q 35.890625 20.75 35.890625 13.375 
L 35.890625 1.703125 
Q 35.890625 -9.078125 31.8125 -12.6875 
Q 27.734375 -16.3125 15.578125 -16.3125 
L 12.5 -16.3125 
z
" id="DejaVuSans-125"/>
    </defs>
    <g transform="translate(66.84 45.84)scale(0.16 -0.16)">
     <use transform="translate(0 0.015625)" xlink:href="#DejaVuSans-65"/>
     <use transform="translate(68.408203 0.015625)" xlink:href="#DejaVuSans-73"/>
     <use transform="translate(97.900391 0.015625)" xlink:href="#DejaVuSans-83"/>
     <use transform="translate(161.376953 0.015625)" xlink:href="#DejaVuSans-32"/>
     <use transform="translate(193.164062 0.015625)" xlink:href="#DejaVuSans-77"/>
     <use transform="translate(279.443359 0.015625)" xlink:href="#DejaVuSans-97"/>
     <use transform="translate(340.722656 0.015625)" xlink:href="#DejaVuSans-115"/>
     <use transform="translate(392.822266 0.015625)" xlink:href="#DejaVuSans-115"/>
     <use transform="translate(444.921875 0.015625)" xlink:href="#DejaVuSans-32"/>
     <use transform="translate(476.708984 0.015625)" xlink:href="#DejaVuSans-76"/>
     <use transform="translate(532.421875 0.015625)" xlink:href="#DejaVuSans-111"/>
     <use transform="translate(593.603516 0.015625)" xlink:href="#DejaVuSans-115"/>
     <use transform="translate(645.703125 0.015625)" xlink:href="#DejaVuSans-115"/>
     <use transform="translate(697.802734 0.015625)" xlink:href="#DejaVuSans-32"/>
     <use transform="translate(729.589844 0.015625)" xlink:href="#DejaVuSans-105"/>
     <use transform="translate(757.373047 0.015625)" xlink:href="#DejaVuSans-110"/>
     <use transform="translate(820.751953 0.015625)" xlink:href="#DejaVuSans-32"/>
     <use transform="translate(852.539062 0.015625)" xlink:href="#DejaVuSans-83"/>
     <use transform="translate(916.015625 0.015625)" xlink:href="#DejaVuSans-76"/>
     <use transform="translate(971.728516 0.015625)" xlink:href="#DejaVuSans-69"/>
     <use transform="translate(1034.912109 0.015625)" xlink:href="#DejaVuSans-32"/>
     <use transform="translate(1066.699219 0.015625)" xlink:href="#DejaVuSans-40"/>
     <use transform="translate(1105.712891 0.015625)" xlink:href="#DejaVuSans-109"/>
     <use transform="translate(1203.125 0.015625)" xlink:href="#DejaVuSans-41"/>
     <use transform="translate(1242.138672 0.015625)" xlink:href="#DejaVuSans-32"/>
     <use transform="translate(1273.925781 0.015625)" xlink:href="#DejaVuSans-105"/>
     <use transform="translate(1301.708984 0.015625)" xlink:href="#DejaVuSans-110"/>
     <use transform="translate(1365.087891 0.015625)" xlink:href="#DejaVuSans-32"/>
     <use transform="translate(1396.875 0.015625)" xlink:href="#DejaVuSans-50"/>
     <use transform="translate(1460.498047 0.015625)" xlink:href="#DejaVuSans-49"/>
     <use transform="translate(1524.121094 0.015625)" xlink:href="#DejaVuSans-48"/>
     <use transform="translate(1587.744141 0.015625)" xlink:href="#DejaVuSans-48"/>
     <use transform="translate(1651.367188 0.015625)" xlink:href="#DejaVuSans-32"/>
     <use transform="translate(1683.154297 0.015625)" xlink:href="#DejaVuSans-117"/>
     <use transform="translate(1746.533203 0.015625)" xlink:href="#DejaVuSans-110"/>
     <use transform="translate(1809.912109 0.015625)" xlink:href="#DejaVuSans-100"/>
     <use transform="translate(1873.388672 0.015625)" xlink:href="#DejaVuSans-101"/>
     <use transform="translate(1934.912109 0.015625)" xlink:href="#DejaVuSans-114"/>
     <use transform="translate(1976.025391 0.015625)" xlink:href="#DejaVuSans-32"/>
     <use transform="translate(2007.8125 0.015625)" xlink:href="#DejaVuSans-82"/>
     <use transform="translate(2077.294922 0.015625)" xlink:href="#DejaVuSans-67"/>
     <use transform="translate(2147.119141 0.015625)" xlink:href="#DejaVuSans-80"/>
     <use transform="translate(2207.421875 0.015625)" xlink:href="#DejaVuSans-56"/>
     <use transform="translate(2271.044922 0.015625)" xlink:href="#DejaVuSans-46"/>
     <use transform="translate(2302.832031 0.015625)" xlink:href="#DejaVuSans-53"/>
     <use transform="translate(2366.455078 0.015625)" xlink:href="#DejaVuSans-44"/>
     <use transform="translate(2398.242188 0.015625)" xlink:href="#DejaVuSans-32"/>
     <use transform="translate(2430.029297 0.015625)" xlink:href="#DejaVuSans-76"/>
     <use transform="translate(2485.742188 0.015625)" xlink:href="#DejaVuSans-73"/>
     <use transform="translate(2515.234375 0.015625)" xlink:href="#DejaVuSans-71"/>
     <use transform="translate(2592.724609 0.015625)" xlink:href="#DejaVuSans-32"/>
     <use transform="translate(2624.511719 0.015625)" xlink:href="#DejaVuSans-71"/>
     <use transform="translate(2702.001953 0.015625)" xlink:href="#DejaVuSans-77"/>
     <use transform="translate(2788.28125 0.015625)" xlink:href="#DejaVuSans-83"/>
     <use transform="translate(2851.757812 0.015625)" xlink:href="#DejaVuSans-76"/>
     <use transform="translate(2907.470703 0.015625)" xlink:href="#DejaVuSans-58"/>
     <use transform="translate(2941.162109 0.015625)" xlink:href="#DejaVuSans-32"/>
     <use transform="translate(2972.949219 0.015625)" xlink:href="#DejaVuSans-123"/>
     <use transform="translate(3036.572266 0.015625)" xlink:href="#DejaVuSans-Oblique-956"/>
     <use transform="translate(3100.195312 0.015625)" xlink:href="#DejaVuSans-61"/>
     <use transform="translate(3183.984375 0.015625)" xlink:href="#DejaVuSans-55"/>
     <use transform="translate(3247.607422 0.015625)" xlink:href="#DejaVuSans-46"/>
     <use transform="translate(3279.394531 0.015625)" xlink:href="#DejaVuSans-53"/>
     <use transform="translate(3343.017578 0.015625)" xlink:href="#DejaVuSans-44"/>
     <use transform="translate(3374.804688 0.015625)" xlink:href="#DejaVuSans-32"/>
     <use transform="translate(3406.591797 0.015625)" xlink:href="#DejaVuSans-Oblique-963"/>
     <use transform="translate(3469.970703 0.015625)" xlink:href="#DejaVuSans-61"/>
     <use transform="translate(3553.759766 0.015625)" xlink:href="#DejaVuSans-48"/>
     <use transform="translate(3617.382812 0.015625)" xlink:href="#DejaVuSans-46"/>
     <use transform="translate(3649.169922 0.015625)" xlink:href="#DejaVuSans-53"/>
     <use transform="translate(3712.777344 0.015625)" xlink:href="#DejaVuSans-125"/>
    </g>
   </g>
   <g id="legend_1">
    <g id="patch_7">
     <path d="M 525.05375 165.786875 
L 638.2 165.786875 
Q 641 165.786875 641 162.986875 
L 641 61.64 
Q 641 58.84 638.2 58.84 
L 525.05375 58.84 
Q 522.25375 58.84 522.25375 61.64 
L 522.25375 162.986875 
Q 522.25375 165.786875 525.05375 165.786875 
z
" style="fill:#ffffff;opacity:0.8;stroke:#cccccc;stroke-linejoin:miter;"/>
    </g>
    <g id="line2d_12">
     <path d="M 527.85375 70.177812 
L 555.85375 70.177812 
" style="fill:none;stroke:#440154;stroke-linecap:square;stroke-width:3;"/>
    </g>
    <g id="line2d_13"/>
    <g id="text_10">
     <!-- GrIS=0 m -->
     <g transform="translate(567.05375 75.077812)scale(0.14 -0.14)">
      <use xlink:href="#DejaVuSans-71"/>
      <use x="77.490234" xlink:href="#DejaVuSans-114"/>
      <use x="118.603516" xlink:href="#DejaVuSans-73"/>
      <use x="148.095703" xlink:href="#DejaVuSans-83"/>
      <use x="211.572266" xlink:href="#DejaVuSans-61"/>
      <use x="295.361328" xlink:href="#DejaVuSans-48"/>
      <use x="358.984375" xlink:href="#DejaVuSans-32"/>
      <use x="390.771484" xlink:href="#DejaVuSans-109"/>
     </g>
    </g>
    <g id="line2d_14">
     <path d="M 527.85375 90.727187 
L 555.85375 90.727187 
" style="fill:none;stroke:#3b528b;stroke-linecap:square;stroke-width:3;"/>
    </g>
    <g id="line2d_15"/>
    <g id="text_11">
     <!-- GrIS=1 m -->
     <g transform="translate(567.05375 95.627187)scale(0.14 -0.14)">
      <use xlink:href="#DejaVuSans-71"/>
      <use x="77.490234" xlink:href="#DejaVuSans-114"/>
      <use x="118.603516" xlink:href="#DejaVuSans-73"/>
      <use x="148.095703" xlink:href="#DejaVuSans-83"/>
      <use x="211.572266" xlink:href="#DejaVuSans-61"/>
      <use x="295.361328" xlink:href="#DejaVuSans-49"/>
      <use x="358.984375" xlink:href="#DejaVuSans-32"/>
      <use x="390.771484" xlink:href="#DejaVuSans-109"/>
     </g>
    </g>
    <g id="line2d_16">
     <path d="M 527.85375 111.276562 
L 555.85375 111.276562 
" style="fill:none;stroke:#21918c;stroke-linecap:square;stroke-width:3;"/>
    </g>
    <g id="line2d_17"/>
    <g id="text_12">
     <!-- GrIS=2 m -->
     <g transform="translate(567.05375 116.176562)scale(0.14 -0.14)">
      <use xlink:href="#DejaVuSans-71"/>
      <use x="77.490234" xlink:href="#DejaVuSans-114"/>
      <use x="118.603516" xlink:href="#DejaVuSans-73"/>
      <use x="148.095703" xlink:href="#DejaVuSans-83"/>
      <use x="211.572266" xlink:href="#DejaVuSans-61"/>
      <use x="295.361328" xlink:href="#DejaVuSans-50"/>
      <use x="358.984375" xlink:href="#DejaVuSans-32"/>
      <use x="390.771484" xlink:href="#DejaVuSans-109"/>
     </g>
    </g>
    <g id="line2d_18">
     <path d="M 527.85375 131.825937 
L 555.85375 131.825937 
" style="fill:none;stroke:#5ec962;stroke-linecap:square;stroke-width:3;"/>
    </g>
    <g id="line2d_19"/>
    <g id="text_13">
     <!-- GrIS=3 m -->
     <defs>
      <path d="M 40.578125 39.3125 
Q 47.65625 37.796875 51.625 33 
Q 55.609375 28.21875 55.609375 21.1875 
Q 55.609375 10.40625 48.1875 4.484375 
Q 40.765625 -1.421875 27.09375 -1.421875 
Q 22.515625 -1.421875 17.65625 -0.515625 
Q 12.796875 0.390625 7.625 2.203125 
L 7.625 11.71875 
Q 11.71875 9.328125 16.59375 8.109375 
Q 21.484375 6.890625 26.8125 6.890625 
Q 36.078125 6.890625 40.9375 10.546875 
Q 45.796875 14.203125 45.796875 21.1875 
Q 45.796875 27.640625 41.28125 31.265625 
Q 36.765625 34.90625 28.71875 34.90625 
L 20.21875 34.90625 
L 20.21875 43.015625 
L 29.109375 43.015625 
Q 36.375 43.015625 40.234375 45.921875 
Q 44.09375 48.828125 44.09375 54.296875 
Q 44.09375 59.90625 40.109375 62.90625 
Q 36.140625 65.921875 28.71875 65.921875 
Q 24.65625 65.921875 20.015625 65.03125 
Q 15.375 64.15625 9.8125 62.3125 
L 9.8125 71.09375 
Q 15.4375 72.65625 20.34375 73.4375 
Q 25.25 74.21875 29.59375 74.21875 
Q 40.828125 74.21875 47.359375 69.109375 
Q 53.90625 64.015625 53.90625 55.328125 
Q 53.90625 49.265625 50.4375 45.09375 
Q 46.96875 40.921875 40.578125 39.3125 
z
" id="DejaVuSans-51"/>
     </defs>
     <g transform="translate(567.05375 136.725937)scale(0.14 -0.14)">
      <use xlink:href="#DejaVuSans-71"/>
      <use x="77.490234" xlink:href="#DejaVuSans-114"/>
      <use x="118.603516" xlink:href="#DejaVuSans-73"/>
      <use x="148.095703" xlink:href="#DejaVuSans-83"/>
      <use x="211.572266" xlink:href="#DejaVuSans-61"/>
      <use x="295.361328" xlink:href="#DejaVuSans-51"/>
      <use x="358.984375" xlink:href="#DejaVuSans-32"/>
      <use x="390.771484" xlink:href="#DejaVuSans-109"/>
     </g>
    </g>
    <g id="line2d_20">
     <path d="M 527.85375 152.375312 
L 555.85375 152.375312 
" style="fill:none;stroke:#fde725;stroke-linecap:square;stroke-width:3;"/>
    </g>
    <g id="line2d_21"/>
    <g id="text_14">
     <!-- GrIS=4 m -->
     <g transform="translate(567.05375 157.275312)scale(0.14 -0.14)">
      <use xlink:href="#DejaVuSans-71"/>
      <use x="77.490234" xlink:href="#DejaVuSans-114"/>
      <use x="118.603516" xlink:href="#DejaVuSans-73"/>
      <use x="148.095703" xlink:href="#DejaVuSans-83"/>
      <use x="211.572266" xlink:href="#DejaVuSans-61"/>
      <use x="295.361328" xlink:href="#DejaVuSans-52"/>
      <use x="358.984375" xlink:href="#DejaVuSans-32"/>
      <use x="390.771484" xlink:href="#DejaVuSans-109"/>
     </g>
    </g>
   </g>
  </g>
 </g>
 <defs>
  <clipPath id="p62f2bbe5e4">
   <rect height="326.16" width="558" x="90" y="51.84"/>
  </clipPath>
 </defs>
</svg>
